HIERARCHY
ROOT Hips
{
	OFFSET 0.000000 0.000000 0.000000
	CHANNELS 6 Xposition Yposition Zposition Zrotation Yrotation Xrotation 
	JOINT LHipJoint
	{
		OFFSET 0.000000 0.000000 0.000000
		CHANNELS 3 Zrotation Yrotation Xrotation
		JOINT LeftUpLeg
		{
			OFFSET 8.178360 -10.767780 5.035740
			CHANNELS 3 Zrotation Yrotation Xrotation
			JOINT LeftLeg
			{
				OFFSET 14.688660 -40.356780 0.000000
				CHANNELS 3 Zrotation Yrotation Xrotation
				JOINT LeftFoot
				{
					OFFSET 15.373200 -42.237540 0.000000
					CHANNELS 3 Zrotation Yrotation Xrotation
					JOINT LeftToeBase
					{
						OFFSET 0.945840 -2.598660 13.935300
						CHANNELS 3 Zrotation Yrotation Xrotation
						End Site
						{
							OFFSET 0.000000 0.000000 0.000000
						}
					}
				}
			}
		}
	}
	JOINT RHipJoint
	{
		OFFSET 0.000000 0.000000 0.000000
		CHANNELS 3 Zrotation Yrotation Xrotation
		JOINT RightUpLeg
		{
			OFFSET -7.833120 -10.767780 5.035740
			CHANNELS 3 Zrotation Yrotation Xrotation
			JOINT RightLeg
			{
				OFFSET -15.255180 -41.913300 0.000000
				CHANNELS 3 Zrotation Yrotation Xrotation
				JOINT RightFoot
				{
					OFFSET -15.409560 -42.337380 0.000000
					CHANNELS 3 Zrotation Yrotation Xrotation
					JOINT RightToeBase
					{
						OFFSET -0.988380 -2.715540 14.178900
						CHANNELS 3 Zrotation Yrotation Xrotation
						End Site
						{
							OFFSET 0.000000 0.000000 0.000000
						}
					}
				}
			}
		}
	}
	JOINT LowerBack
	{
		OFFSET 0.000000 0.000000 0.000000
		CHANNELS 3 Zrotation Yrotation Xrotation
		JOINT Spine
		{
			OFFSET 0.169620 12.213540 -1.160280
			CHANNELS 3 Zrotation Yrotation Xrotation
			JOINT Spine1
			{
				OFFSET 0.340320 12.293100 -0.256500
				CHANNELS 3 Zrotation Yrotation Xrotation
				JOINT Neck
				{
					OFFSET 0.000000 0.000000 0.000000
					CHANNELS 3 Zrotation Yrotation Xrotation
					JOINT Neck1
					{
						OFFSET -0.325020 10.477440 1.032120
						CHANNELS 3 Zrotation Yrotation Xrotation
						JOINT Head
						{
							OFFSET 0.624420 10.568160 -0.743820
							CHANNELS 3 Zrotation Yrotation Xrotation
							End Site
							{
								OFFSET 0.000000 0.000000 0.000000
							}
						}
					}
				}
				JOINT LeftShoulder
				{
					OFFSET 0.000000 0.000000 0.000000
					CHANNELS 3 Zrotation Yrotation Xrotation
					JOINT LeftArm
					{
						OFFSET 20.174460 7.205340 -1.867260
						CHANNELS 3 Zrotation Yrotation Xrotation
						JOINT LeftForeArm
						{
							OFFSET 29.898000 -0.000000 -0.000000
							CHANNELS 3 Zrotation Yrotation Xrotation
							JOINT LeftHand
							{
								OFFSET 20.901360 -0.000000 -0.000000
								CHANNELS 3 Zrotation Yrotation Xrotation
								JOINT LeftFingerBase
								{
									OFFSET 0.000000 0.000000 0.000000
									CHANNELS 3 Zrotation Yrotation Xrotation
									JOINT LeftHandIndex1
									{
										OFFSET 4.291560 -0.000000 -0.000000
										CHANNELS 3 Zrotation Yrotation Xrotation
										End Site
										{
											OFFSET 0.000000 0.000000 0.000000
										}
									}
								}
								JOINT LThumb
								{
									OFFSET 0.000000 0.000000 0.000000
									CHANNELS 3 Zrotation Yrotation Xrotation
									End Site
									{
										OFFSET 0.000000 0.000000 0.000000
									}
								}
							}
						}
					}
				}
				JOINT RightShoulder
				{
					OFFSET 0.000000 0.000000 0.000000
					CHANNELS 3 Zrotation Yrotation Xrotation
					JOINT RightArm
					{
						OFFSET -18.819600 8.244300 -2.427900
						CHANNELS 3 Zrotation Yrotation Xrotation
						JOINT RightForeArm
						{
							OFFSET -31.451400 -0.000000 -0.000000
							CHANNELS 3 Zrotation Yrotation Xrotation
							JOINT RightHand
							{
								OFFSET -20.665020 -0.000000 -0.000000
								CHANNELS 3 Zrotation Yrotation Xrotation
								JOINT RightFingerBase
								{
									OFFSET 0.000000 0.000000 0.000000
									CHANNELS 3 Zrotation Yrotation Xrotation
									JOINT RightHandIndex1
									{
										OFFSET -3.735180 -0.000000 -0.000000
										CHANNELS 3 Zrotation Yrotation Xrotation
										End Site
										{
											OFFSET 0.000000 0.000000 0.000000
										}
									}
								}
								JOINT RThumb
								{
									OFFSET 0.000000 0.000000 0.000000
									CHANNELS 3 Zrotation Yrotation Xrotation
									End Site
									{
										OFFSET 0.000000 0.000000 0.000000
									}
								}
							}
						}
					}
				}
			}
		}
	}
}
MOTION
Frames:	7
Frame Time:	0.0333333
13.097568 108.964758 16.239654 1.811035 -63.880596 -1.303457 -1.931111 1.265086 1.835817 -11.357872 -1.800330 -15.374463 9.237265 16.901513 58.783846 0.330266 -3.648979 13.255334 0.159000 -2.568900 -7.080600 0.832630 -1.206833 1.246575 28.471611 -0.404265 -7.287913 -0.431655 -5.805029 18.029428 -0.312877 0.623400 1.885305 -1.493100 -7.719000 21.863700 0.635151 1.083853 8.100099 1.781464 1.608232 1.132520 0.285044 0.708644 -4.024491 -12.629725 -7.806673 -13.824120 8.256956 -9.445558 18.873329 4.636900 -4.751300 13.847500 -6.208715 -0.497839 -1.730345 -82.513985 6.463392 25.806903 18.581892 -26.375115 -5.370035 -1.160851 -2.382297 5.669908 19.299284 22.698420 8.916700 -7.125000 0.000000 0.000000 -10.260400 56.301700 -2.864900 5.131491 1.598977 -0.969445 84.547265 -1.837626 12.244035 -16.953118 24.999044 -4.038319 0.368061 -0.159321 7.584445 -15.199359 8.393915 -2.358600 7.125000 0.000000 0.000000 8.147500 -21.205300 4.695600 
10.745364 108.618582 17.813412 1.033893 -67.040461 -0.688376 -1.911634 1.103843 1.582832 -10.482463 -4.037245 -17.328033 8.849920 16.795826 57.596862 0.254917 -4.256490 8.504331 0.093900 -1.976400 -5.440500 0.851260 -1.187728 1.331418 28.615786 0.628398 -5.332812 -0.554542 -6.054806 18.889654 -0.553002 1.968024 0.880137 -1.198200 -6.945500 19.554000 1.110995 1.487127 8.176288 1.728947 2.186457 1.195226 -0.191578 1.008990 -3.936130 -12.576154 -7.868412 -13.929084 8.539646 -9.562318 18.738936 4.725200 -4.759000 13.845900 -6.221106 -0.438821 -1.747569 -83.059451 6.806655 24.991870 18.428659 -26.159375 -5.271423 -1.106947 -2.455023 4.615311 18.887629 23.034001 8.839200 -7.125000 0.000000 0.000000 -10.891000 56.602400 -3.123400 5.094740 1.629954 -0.951702 84.291585 -1.123694 14.189809 -18.003883 26.379631 -4.548665 0.372374 -0.095574 4.551856 -14.876729 7.863690 -2.151600 7.125000 0.000000 0.000000 8.402800 -21.808400 4.729700 
8.472024 108.117072 19.405230 -0.108752 -69.425656 0.266024 -1.972464 0.968785 1.365688 -9.436420 -6.435498 -18.758693 7.825248 16.275707 54.237492 0.200574 -3.215946 4.545189 0.294700 -3.491000 -9.648800 0.867006 -1.170368 1.411946 28.812077 1.723489 -3.749685 -0.760293 -6.527863 20.362108 -0.751902 2.873978 -1.207287 -1.168800 -6.862700 19.309300 1.835690 1.626288 8.571396 1.717573 2.452628 1.172403 -0.719614 1.151593 -4.146603 -12.464867 -7.786436 -13.845167 8.416672 -9.440067 18.473256 4.665900 -4.712500 13.677800 -6.252118 -0.418514 -1.761951 -83.583324 7.087443 24.286602 17.974189 -25.542302 -4.998392 -1.240666 -2.364635 5.463083 20.008494 22.188115 9.115300 -7.125000 0.000000 0.000000 -9.182200 55.929100 -2.476900 5.072522 1.642025 -0.945471 84.001909 -0.385054 15.228539 -18.858672 27.476709 -4.979479 0.374063 -0.079767 3.211556 -14.891668 8.033540 -2.197500 7.125000 0.000000 0.000000 8.387400 -21.641600 4.753000 
6.071658 107.808822 21.009684 -1.799844 -71.771675 2.083353 -2.106641 0.839677 1.192872 -8.258356 -8.019205 -19.955954 6.193129 15.225785 48.720324 0.097429 -1.458318 2.328972 0.513900 -4.595000 -12.756900 0.877336 -1.162263 1.487437 28.932326 2.298228 -2.278783 -0.872212 -6.723665 21.027370 -1.036081 4.317051 -2.304223 -1.037600 -6.478600 18.179500 2.636213 1.783784 8.536168 1.741268 2.742957 1.134456 -1.213434 1.304363 -4.128069 -12.107344 -7.626824 -14.047509 8.043651 -9.246680 18.448759 4.466800 -4.632800 13.637300 -6.270920 -0.432475 -1.763943 -83.835454 7.042155 23.836572 17.537010 -24.948404 -4.745624 -1.225881 -2.420629 6.197029 19.173332 22.986908 8.983800 -7.125000 0.000000 0.000000 -10.512500 56.623400 -3.018500 5.048842 1.629289 -0.957172 83.362307 0.073849 18.115246 -19.869621 28.717231 -5.497654 0.438221 -0.032303 -0.106530 -16.407743 7.766273 -2.348200 7.125000 0.000000 0.000000 7.253800 -21.875500 4.060700 
3.692964 107.609544 22.556346 -3.678320 -73.988933 4.025545 -2.333568 0.728258 1.104412 -7.246437 -8.177990 -20.780538 4.130749 13.532466 41.291482 -0.182593 1.175362 1.481848 1.209800 -6.977700 -19.649500 0.872063 -1.163855 1.545332 28.862506 2.284067 -0.496850 -0.880306 -6.652009 20.898900 -1.296076 5.820467 -2.608266 -1.200200 -6.950800 19.569700 3.539522 2.019721 8.727196 1.705537 3.161062 1.184386 -1.870165 1.510782 -4.082582 -12.245166 -7.719045 -14.060109 8.226504 -9.311131 18.080596 4.566600 -4.651900 13.510000 -6.348570 -0.426296 -1.749614 -83.853734 6.587748 23.694263 16.836275 -23.972233 -4.352859 -1.330495 -2.346089 7.133468 19.661460 22.444677 9.053000 -7.125000 0.000000 0.000000 -9.648500 56.138100 -2.653400 5.054116 1.682354 -0.918029 83.746821 1.669178 17.608464 -20.038555 28.919115 -5.578640 0.456338 -0.065358 1.157567 -17.232367 8.295055 -2.646600 7.125000 0.000000 0.000000 6.632500 -21.263300 3.800700 
1.086696 107.502984 24.054246 -6.058904 -76.302216 6.872217 -2.643486 0.601089 1.062280 -6.336462 -7.411444 -21.444809 2.023025 11.219356 32.662568 -0.720782 4.709271 2.544494 0.867700 -5.939500 -16.609000 0.862104 -1.196569 1.604382 28.740644 2.110558 1.479331 -0.718013 -6.198953 19.601740 -1.396111 6.344953 -2.978404 -0.625100 -5.059200 14.077600 4.059812 2.247583 8.358224 1.717990 3.495212 1.181930 -2.200700 1.689262 -3.843768 -11.795276 -7.459492 -14.329356 7.842524 -8.962056 17.838164 4.364900 -4.489400 13.350200 -6.374391 -0.455066 -1.743159 -83.927642 6.380702 23.206350 16.414128 -23.386776 -4.122267 -1.328050 -2.369069 7.054485 19.327504 22.591101 8.949700 -7.125000 0.000000 0.000000 -10.077100 56.236500 -2.797000 5.072448 1.655977 -0.920465 83.585189 2.650906 17.530827 -20.221356 29.173397 -5.688207 0.421700 -0.096141 2.715442 -16.541363 8.857451 -2.707700 7.125000 0.000000 0.000000 7.144900 -20.696200 4.191000 
-1.623726 107.422308 25.530468 -8.822062 -77.873974 10.126622 -3.068758 0.498421 1.063461 -5.420265 -7.249151 -21.405344 0.155193 8.277227 23.149023 -1.174922 7.684788 5.847340 1.006400 -6.383500 -17.901300 0.822926 -1.255526 1.662993 28.528937 1.602057 3.378516 -0.557871 -5.692092 18.176085 -1.543349 7.527781 -2.330214 -1.047300 -6.507800 18.265100 4.523404 2.254504 8.009276 1.779785 3.537793 1.130891 -2.350854 1.707265 -3.724100 -11.847529 -7.365980 -14.659389 7.954937 -8.767697 17.753263 4.453000 -4.390300 13.377400 -6.402469 -0.448285 -1.745069 -83.995518 6.280771 22.675963 16.085642 -22.924808 -3.946745 -1.316992 -2.361525 7.513602 18.795689 22.543725 8.670800 -7.125000 0.000000 0.000000 -10.644500 56.072800 -2.914600 5.077040 1.663968 -0.916262 83.470932 3.320629 18.160992 -20.364374 29.337573 -5.762485 0.434627 -0.074218 2.408791 -16.851068 8.333755 -2.595000 7.125000 0.000000 0.000000 6.921900 -21.243100 3.972100 
